<svg width="152" height="29" viewBox="0 0 152 29" fill="none" xmlns="http://www.w3.org/2000/svg">
<path d="M2.94332 20.4595L2.73297 20.8204C1.6227 22.7253 2.26688 25.1696 4.17178 26.2798L4.17179 26.2798C6.07669 27.3901 8.52096 26.7459 9.63123 24.841L9.84158 24.4801C10.9518 22.5752 10.3077 20.1309 8.40277 19.0207L8.40276 19.0207C6.49786 17.9104 4.05359 18.5546 2.94332 20.4595Z" fill="#00A1FF"/>
<path opacity="0.25" d="M7.36539 8.15958L16.9922 24.8337C18.0946 26.7431 20.5362 27.3973 22.4456 26.2949L22.4457 26.2949C24.3551 25.1925 25.0093 22.7509 23.9069 20.8414L14.2801 4.16735C13.1777 2.2579 10.7361 1.60368 8.82664 2.70611C6.91719 3.80853 6.26297 6.25013 7.36539 8.15958Z" fill="#00A1FF"/>
<path opacity="0.25" d="M20.7404 8.15958L30.3672 24.8337C31.4696 26.7431 33.9112 27.3973 35.8206 26.2949L35.8207 26.2949C37.7301 25.1925 38.3843 22.7509 37.2819 20.8414L27.6551 4.16735C26.5527 2.2579 24.1111 1.60368 22.2016 2.70611C20.2922 3.80853 19.638 6.25013 20.7404 8.15958Z" fill="#00A1FF"/>
<path d="M7.36676 8.15914L12.9726 17.8688C14.0751 19.7783 16.5167 20.4325 18.4261 19.3301L18.4261 19.3301C20.3356 18.2276 20.9898 15.786 19.8874 13.8766L14.2815 4.16691C13.1791 2.25747 10.7375 1.60324 8.82801 2.70566C6.91856 3.80809 6.26434 6.24969 7.36676 8.15914Z" fill="#00A1FF"/>
<path d="M20.7396 8.15857L26.418 17.9938C27.5204 19.9033 29.962 20.5575 31.8714 19.4551L31.8714 19.4551C33.7809 18.3526 34.4351 15.911 33.3327 14.0016L27.6543 4.16634C26.5519 2.25689 24.1103 1.60267 22.2008 2.70509C20.2914 3.80751 19.6372 6.24912 20.7396 8.15857Z" fill="#00A1FF"/>
</svg>
